<?xml version="1.0" encoding="utf-8"?>
<!-- Generator: Adobe Illustrator 22.0.0, SVG Export Plug-In . SVG Version: 6.00 Build 0)  -->
<svg version="1.1" id="Layer_1" xmlns="http://www.w3.org/2000/svg" xmlns:xlink="http://www.w3.org/1999/xlink" x="0px" y="0px"
	 viewBox="0 0 188.5 34.4" style="enable-background:new 0 0 188.5 34.4;" xml:space="preserve">
<style type="text/css">
	.st0{fill:#C69853;}
</style>
<path class="st0" d="M119.7,18.9c-0.4-3.2,1.7-6,4.9-7.1c-2.3,1.1-3.8,3.7-3.2,6.7C122,20.8,120,20.8,119.7,18.9L119.7,18.9z
	 M177,31.5h-6.8c-15.8,4.9-27.4-18.5-39.5-20.9c-10.3-2-17.1,8.9-10.9,16.1c2.4,2.8,7.1,3.4,9.9,1c1.6-1.3,2.4-2.6,2.4-3.8
	c-1.9,1.1-4.5,2.1-6.6,1c-3.4-1.8-3-7.2,0.9-8.4c3.7-1.1,6.7,2.5,6.6,6c0.6-0.3,1.2-0.7,1.8-1c3-1.5,6.3-1.2,9.1,1.4
	c1.3,1.2,2.2,2.9,2.5,4.8c0.3,2.4-2.2,3-2.3,0c0-1.5-0.5-2.8-1.2-3.9c-1.8-2.8-5-2.9-7.8-1.5c-0.7,0.3-1.4,0.7-2.1,1.1
	c0,0.8-0.1,1.6-0.5,2.4c0.6,1,1.7,1.8,2.9,2.6c-1.5,0.2-3.3,0.3-4.9,0c-4.8,4.1-12.2,1.1-13.8-5.3c-1.5,0.3-3,0.4-4.5,0.1
	c0.1,0.3,0.1,0.5,0.2,0.8c0.4,3.3,2.5,3.8,4.6,3.4c0.1,0,0.2,0,0.3,0c-0.8-0.9-1.4-2-1.8-3.2c0.2,0,0.4,0,0.6-0.1
	c0.8,2.6,2.7,4.8,5,6h-0.2c-1-0.4-1.9-1.1-2.7-1.8c0.2,0.9-0.3,2-1.8,1.8c-2.6-0.3-4.2-2.5-5.1-4.9c-0.6,1.6-2.7,3.9-4.5,2.6
	c-1.2-0.8-1.1-2.3,0-3.5c-1.7-2.5-4.4-1.9-5.7-0.2c-0.2-1.3,0.6-2.2,1.7-2.5c2.3-0.6,5,0.3,5.5,3c-0.7,0.6-0.9,1.2-0.4,1.6
	c0.9,0.7,2.2-0.7,2.5-2c0.5-3.4-3-6.8-7.1-5.4c-0.8-0.2-1.7-0.3-2.6-0.2c4.2-2.6,9.9-1.2,11.5,4.5c3.4-1.7,3.6-5.6,6.5-9.4
	c2.8-3.7,7.9-5.7,13.1-4.9c13.6,2,24.9,26.4,38.7,21.3c2.9-1.1,4.2-3.7,4-6.1c-2.3,1.1-4.6,3.7-7,2.7c-1.6-0.6-3-2.7-2-5.3
	c1.7-4.2,8.1-4,9.7,0.9c0.1,0.2,0.1,0.4,0.2,0.6c1-0.4,2.5-0.8,3.8-0.7c0.2-0.3,0.4-0.5,0.6-0.7c2.9-2.4,7.5,0.2,7.1,4.6
	c-0.3,2.8-2,4.1-4.2,4.8C180.8,31.5,178.9,31.5,177,31.5L177,31.5z M171.7,30.9h5.3c1.9,0,3.8,0,5.6-0.6c1.9-0.6,3.5-1.8,3.8-4.2
	c0.2-1.2-0.1-2.6-1.1-3.7c-1.2-1.4-3.6-1.8-5-0.6c-0.1,0.1-0.3,0.3-0.4,0.4c0.9,0.2,1.8,0.8,2,1.8c0.2,1.6-1.6,2.2-2.7,1.3
	c-0.7-0.6-0.7-1.7-0.3-2.5c-1.1,0-2.4,0.4-3.3,0.7C176.1,26.7,174.4,29.6,171.7,30.9L171.7,30.9z M170,25.8c1.4-0.8,2.8-1.8,4.4-2.5
	c-0.3-1.4-1.2-2.7-2.7-3.3c-4-1.6-6.8,3-4.3,4.5C168.2,23.1,170.7,24.1,170,25.8L170,25.8L170,25.8z M61.4,21l-0.9,1.4L59.6,21
	l0.9-1.4L61.4,21L61.4,21z M157.8,31.5H30.7c-1.1,0.4-2.2,0.7-3.4,0.9c-0.3,0-0.6,0.1-0.9,0.1c5.6-1.4,10.7-5.6,14.9-9.3
	c2.8-2.5,5.6-5.2,8.5-7.5c2.3-1.8,5.1-3.7,8.1-4.3c1.9-0.4,3.8-0.3,5.6,0.3c-1.5-0.3-3-0.3-4.5,0c-2.8,0.6-5.6,2.4-7.8,4.1
	c-2.9,2.2-5.5,4.8-8.3,7.3C39.7,25.9,36,29,32,30.9h124.5c-4.1-1.9-7.7-5-10.9-7.8c-2.7-2.4-5.4-5-8.3-7.3c-2.2-1.8-5-3.6-7.8-4.1
	c-1.5-0.3-3.1-0.3-4.5,0c1.8-0.6,3.7-0.7,5.6-0.3c2.9,0.6,5.7,2.5,8.1,4.3c3,2.3,5.7,5,8.5,7.5c4.2,3.7,9.2,8,14.9,9.3
	c-0.3,0-0.6-0.1-0.9-0.1C160.1,32.2,158.9,31.9,157.8,31.5L157.8,31.5z M128.9,21l-0.9,1.4l-0.9-1.4l0.9-1.4L128.9,21L128.9,21z
	 M68.7,18.9c0.4-3.2-1.7-6-4.9-7.1c2.3,1.1,3.8,3.7,3.2,6.7C66.5,20.8,68.5,20.8,68.7,18.9L68.7,18.9z M84.7,21.1
	c2.5-1.4,5.3,0.3,5.4,3.1c-1.1-0.8-2.9,0.6-1.9,2.1c0.5,0.7,1.2,0.8,1.8,0.6c1.3-0.5,1.9-1.9,1.8-3.2c-0.2-1.8-1.5-3.5-1.4-5.3
	c-0.7,0.2-1.4,0.5-1.9,1.3C86.5,18.8,85.1,19.4,84.7,21.1L84.7,21.1z M84.1,11c-1.4-1.4-4-0.1-3.1,1.8c1.6,2.9,8.2,1.2,10.1,4.2
	c-2.7-1.8-9-0.4-11.2-2.7C76.6,11.1,81.6,7,84.1,11L84.1,11z M87.9,8.1c-0.2-1.7-2.2-1.6-2.3,0.2c0,2.9,6.5,5,6.9,8.5
	c-1.4-3.1-7.5-5-8.2-7.7C83.3,5.3,88.3,4.6,87.9,8.1L87.9,8.1z M92,4.7c0.5-1.6-1.4-2.5-2.3-0.8c-1.2,2.6,4.5,6.9,3.2,11.3
	c-0.1-4.7-5.4-8.5-5-11.2C88.7,0.3,93.8,1.8,92,4.7L92,4.7z M92.5,5.8l1.7-3l1.7,3c-0.6,2.4-1.1,4.9-1.2,7.3
	c-0.1,1.3-0.1,2.5-0.2,3.8l1.7,1.7l-2,11.5l-2-11.5l1.7-1.7c-0.1-1.3-0.1-2.5-0.2-3.8C93.6,10.7,93.1,8.2,92.5,5.8L92.5,5.8z
	 M25.8,22.5c-0.2,3-2.4,5.2-5.5,5.9c3.7,0.1,6.7-2.4,7.1-5.9C27.5,21.2,25.9,21.2,25.8,22.5L25.8,22.5z M30.5,21.7
	c-0.4,4.1-3.7,7-8.1,7.5c3.2-0.7,5.8-3.6,5.8-7.4C28.3,18.8,30.8,19.3,30.5,21.7L30.5,21.7z M74.7,13.4c0.7,2.3,2.8,3.7,5.4,3.7
	c-2.9,0.7-5.7-0.7-6.6-3.4C73.1,12.7,74.3,12.3,74.7,13.4L74.7,13.4z M76.6,10.6c0.1,3,2.3,5.2,5.4,6c-3.7,0-6.6-2.5-6.9-6.1
	C74.9,9.3,76.5,9.3,76.6,10.6L76.6,10.6z M62.6,24.1c-2.1,1.2-4.4-0.1-6.1-1.2c-0.4-2.9,2-6.8,5.4-5.6
	C64.5,18.3,65.2,22.6,62.6,24.1L62.6,24.1z M62,16.5c-3.7-1.1-6.7,2.5-6.6,6c-0.6-0.3-1.2-0.7-1.8-1c-3-1.5-6.3-1.2-9.1,1.4
	c-1.3,1.2-2.2,2.9-2.5,4.8c-0.3,2.4,2.2,3,2.3,0c0-1.5,0.5-2.8,1.2-3.9c1.8-2.8,5-2.9,7.8-1.5c0.7,0.3,1.4,0.7,2.1,1.1
	c0,0.8,0.1,1.6,0.5,2.4c-0.6,1-1.7,1.8-2.9,2.6c1.5,0.2,3.3,0.3,4.9,0c4.8,4.1,12.2,1.1,13.8-5.3c1.5,0.3,3,0.4,4.5,0.1
	c-0.1,0.3-0.1,0.5-0.2,0.8c-0.4,3.3-2.5,3.8-4.6,3.4c-0.1,0-0.2,0-0.3,0c0.8-0.9,1.4-2,1.8-3.2c-0.2,0-0.4,0-0.6-0.1
	c-0.8,2.6-2.7,4.8-5,6h0.2c1-0.4,1.9-1.1,2.7-1.8c-0.2,0.9,0.3,2,1.8,1.8c2.6-0.3,4.2-2.5,5.1-4.9c0.6,1.6,2.7,3.9,4.5,2.6
	c1.2-0.8,1.1-2.3,0-3.5c1.7-2.5,4.4-1.9,5.7-0.2c0.2-1.3-0.6-2.2-1.7-2.5c-2.3-0.6-5,0.3-5.5,3c0.7,0.6,0.9,1.2,0.4,1.6
	c-0.9,0.7-2.2-0.7-2.5-2c-0.5-3.4,3-6.8,7.1-5.4c0.8-0.2,1.7-0.3,2.6-0.2c-4.2-2.6-9.9-1.2-11.5,4.5c-3.4-1.7-3.6-5.6-6.5-9.4
	C66.9,10,61.8,8,56.6,8.8c-13.6,2-24.9,26.4-38.7,21.3c-2.9-1.1-4.2-3.7-4-6.1c2.6,1.3,5.4,4.5,8,2c1-1,1.7-2.6,0.9-4.6
	c-1.7-4.2-8.1-4-9.7,0.9c-0.1,0.2-0.1,0.4-0.2,0.6c-1-0.4-2.5-0.8-3.8-0.7c-0.2-0.3-0.4-0.5-0.6-0.7c-2.9-2.4-7.5,0.2-7.1,4.6
	c0.3,2.8,2,4.1,4.2,4.8c1.9,0.6,3.8,0.6,5.7,0.6h6.8C34,36.4,45.6,13,57.7,10.6c10.3-2,17.1,8.9,10.9,16.1c-2.4,2.8-7.1,3.4-9.9,1
	c-1.6-1.3-2.4-2.6-2.4-3.8c1.9,1.1,4.5,2.1,6.6,1C66.3,23.1,65.9,17.7,62,16.5L62,16.5z M14.2,23.4c0.3-1.4,1.2-2.7,2.7-3.3
	c4-1.6,6.8,3,4.3,4.5c-1-1.4-3.4-0.4-2.7,1.3l0,0C17.1,25,15.7,24.1,14.2,23.4L14.2,23.4z M12.9,23.5c-0.5,3.1,1.1,6,3.9,7.4h-5.3
	c-1.9,0-3.8,0-5.6-0.6c-1.9-0.6-3.5-1.8-3.8-4.2c-0.2-1.2,0.1-2.6,1.1-3.7c1.2-1.4,3.6-1.8,5-0.6c0.1,0.1,0.3,0.3,0.4,0.4
	c-0.9,0.2-1.8,0.8-2,1.8c-0.2,1.6,1.6,2.2,2.7,1.3c0.7-0.6,0.7-1.7,0.3-2.5C10.8,22.9,12.1,23.2,12.9,23.5L12.9,23.5z M73.5,16.2
	c1.1,1.7,3,2.2,5.1,1.7c-2.1,1.2-4.6,0.7-6-1.2C72.1,16,73,15.4,73.5,16.2L73.5,16.2z M64.5,16.4c0.6-1.6-0.1-3.2-1.5-4.3
	c1.9,0.8,2.9,2.7,2.3,4.6C65.1,17.5,64.3,17.2,64.5,16.4L64.5,16.4z M103.8,21.1c-2.5-1.4-5.3,0.3-5.4,3.1c1.1-0.8,2.9,0.6,1.9,2.1
	c-0.5,0.7-1.2,0.8-1.8,0.6c-1.3-0.5-1.9-1.9-1.8-3.2c0.2-1.8,1.5-3.5,1.4-5.3c0.7,0.2,1.4,0.5,1.9,1.3
	C102,18.8,103.4,19.4,103.8,21.1L103.8,21.1z M104.4,11c1.4-1.4,4-0.1,3.1,1.8c-1.6,2.9-8.2,1.2-10.1,4.2c2.7-1.8,9-0.4,11.2-2.7
	C111.9,11.1,106.9,7,104.4,11L104.4,11z M100.6,8.1c0.2-1.7,2.2-1.6,2.3,0.2c0,2.9-6.5,5-6.9,8.5c1.4-3.1,7.5-5,8.2-7.7
	C105.2,5.3,100.2,4.6,100.6,8.1L100.6,8.1z M96.5,4.7c-0.5-1.6,1.4-2.5,2.3-0.8c1.2,2.6-4.5,6.9-3.2,11.3c0.1-4.7,5.4-8.5,5-11.2
	C99.8,0.3,94.7,1.8,96.5,4.7L96.5,4.7z M162.7,22.5c0.2,3,2.4,5.2,5.5,5.9c-3.7,0.1-6.7-2.4-7.1-5.9C161,21.2,162.6,21.2,162.7,22.5
	L162.7,22.5z M158,21.7c0.4,4.1,3.7,7,8.1,7.5c-3.2-0.7-5.8-3.6-5.8-7.4C160.2,18.8,157.7,19.3,158,21.7L158,21.7z M113.8,13.4
	c-0.7,2.3-2.8,3.7-5.4,3.7c2.9,0.7,5.7-0.7,6.6-3.4C115.4,12.7,114.2,12.3,113.8,13.4L113.8,13.4z M111.9,10.6c-0.1,3-2.3,5.2-5.4,6
	c3.7,0,6.6-2.5,6.9-6.1C113.6,9.3,112,9.3,111.9,10.6L111.9,10.6z M125.9,24.1c2.1,1.2,4.4-0.1,6.1-1.2c0.4-2.9-2-6.8-5.4-5.6
	C124,18.3,123.2,22.6,125.9,24.1L125.9,24.1z M115,16.2c-1.1,1.7-3,2.2-5.1,1.7c2.1,1.2,4.6,0.7,6-1.2C116.4,16,115.5,15.4,115,16.2
	L115,16.2z M124,16.4c-0.6-1.6,0.1-3.2,1.5-4.3c-1.9,0.8-2.9,2.7-2.3,4.6C123.4,17.5,124.2,17.2,124,16.4L124,16.4z M9.1,22.9
	c0.3,0.6,0.6,1.5,0,2.1c-0.7,0.5-1.8,0.2-1.7-0.8C7.4,23.3,8.4,23,9.1,22.9L9.1,22.9z M179.4,22.9c-0.3,0.6-0.6,1.5,0,2.1
	c0.7,0.5,1.8,0.2,1.7-0.8C181.1,23.3,180.1,23,179.4,22.9L179.4,22.9z"/>
</svg>
